<svg width="210" height="83" viewBox="0 0 210 83" fill="none" xmlns="http://www.w3.org/2000/svg">
<path d="M79.8875 25.9924C79.8 25.9748 79.38 25.8515 78.9775 25.7281C78.5575 25.6047 78.225 25.4109 78.225 25.3228C78.225 25.1113 79.205 24.2126 80.6225 23.1553C81.6375 22.3799 81.69 22.3094 81.515 21.8336C81.4275 21.5517 81.27 21.2697 81.165 21.2168C81.0775 21.164 80.2375 21.1992 79.31 21.3226C78.3825 21.4283 77.14 21.4988 76.5625 21.4636L75.5125 21.4107L76.475 20.8468L77.4375 20.2653H76.125C75.4075 20.2653 73.71 20.3886 72.3625 20.5296C69.6325 20.8292 69.2125 20.7234 70.0875 20.0009C70.56 19.5956 72.7475 18.4502 74.4625 17.6924C75.11 17.4105 75.1275 17.3752 74.725 17.3047C74.0425 17.199 73.955 16.9875 74.4975 16.7761C75.3025 16.4765 78.4525 15.5249 79.065 15.4016C79.38 15.3311 79.6775 15.2253 79.7125 15.1548C79.87 14.9081 78.4525 13.7803 77.0175 13.0402C76.2475 12.6349 75.6 12.212 75.6 12.1239C75.6 11.5423 81.4275 9.76249 82.81 9.92109C84.0175 10.0797 84.7 10.485 85.015 11.2956C85.19 11.7538 85.3825 11.9829 85.5925 11.9829C85.7675 11.9829 87.115 11.789 88.585 11.5423C91.5425 11.0489 92.5575 11.0137 95.2175 11.2956C97.09 11.4718 98.8575 11.8419 101.132 12.5115C103.46 13.1812 104.125 13.7098 104.125 14.9258C104.125 15.5602 104.037 15.754 103.512 16.2298C102.69 16.9875 101.325 17.7982 98.63 19.1551C94.4825 21.2168 91.245 22.2918 88.7775 22.4151C87.9025 22.468 87.885 22.4856 87.78 23.0848C87.5175 24.6708 86.2225 25.5871 83.8075 25.9043C82.6 26.0629 80.2725 26.1158 79.8875 25.9924Z" fill="#339D9E"/>
<path d="M168.875 65.7829C163.327 64.8489 158.935 60.8135 157.587 55.4211C157.167 53.7646 157.167 50.5574 157.57 48.9891C158.952 43.8082 162.627 40.1251 167.702 38.874C169.435 38.4334 172.41 38.4687 174.212 38.9445C179.567 40.3719 183.435 44.8126 184.275 50.4869C184.52 52.1082 184.397 53.7118 183.907 55.6502C182.63 60.7254 178.587 64.5493 173.39 65.6243C172.147 65.8886 169.925 65.9591 168.875 65.7829ZM168.945 64.2145C169.382 64.0383 169.277 63.6682 168.752 63.5625C168.052 63.4392 167.79 63.5801 168.017 63.9854C168.192 64.3379 168.472 64.3907 168.945 64.2145ZM172.777 62.2056C173.705 61.5712 174.58 60.6549 174.405 60.4963C174.335 60.4258 173.897 60.4963 173.442 60.6725C172.97 60.8311 172.445 60.9721 172.27 60.9721C172.077 60.9721 171.71 61.0954 171.43 61.2364C171.08 61.4302 170.852 61.4479 170.73 61.3245C170.52 61.113 169.4 61.0778 169.4 61.2893C169.4 61.3597 169.592 61.7122 169.837 62.0646C170.152 62.5404 170.415 62.7343 170.835 62.7871C171.622 62.8752 171.937 62.7871 172.777 62.2056ZM168.402 61.536C168.682 61.2364 168.63 61.1835 167.772 60.7077C166.285 59.9147 165.287 60.4082 166.355 61.4126C166.932 61.9589 167.982 62.0118 168.402 61.536ZM162.855 59.6152C162.522 58.9279 162.12 58.6107 161.787 58.7517C161.402 58.8927 161.735 59.4742 162.452 59.9147C163.117 60.3377 163.205 60.2672 162.855 59.6152ZM176.312 59.5447C176.452 59.0865 176.207 58.8045 175.822 58.9631C175.472 59.0865 175.437 59.4037 175.735 59.7033C176.032 60.0028 176.19 59.9676 176.312 59.5447ZM169.54 56.2493C169.627 55.985 168.42 55.4387 168.07 55.5797C167.772 55.7031 167.755 56.0731 168.035 56.3551C168.315 56.637 169.435 56.5489 169.54 56.2493ZM174.212 56.0379C174.125 55.8969 174.02 55.8969 173.915 56.0026C173.81 56.1084 173.792 56.2846 173.862 56.3903C173.95 56.5313 174.055 56.5313 174.16 56.4256C174.265 56.3198 174.282 56.1436 174.212 56.0379ZM180.845 55.7383C181.107 55.192 181.107 55.0687 180.897 54.8572C180.46 54.4167 180.075 54.7691 180.075 55.615C180.075 56.5842 180.407 56.637 180.845 55.7383ZM161.157 55.3506C161.297 55.2449 161.332 55.1039 161.245 54.9629C161.157 54.822 161.122 54.5753 161.14 54.4167C161.175 54.2404 161.087 54.0995 160.965 54.0995C160.825 54.0995 160.632 53.8704 160.527 53.5708C160.3 52.9716 159.652 52.8307 159.495 53.3593C159.442 53.5179 159.32 53.7999 159.232 53.9761C159.04 54.3462 159.32 54.9806 159.687 54.9806C159.827 54.9806 159.95 55.051 159.95 55.1392C159.95 55.2978 160.282 55.4387 160.737 55.4916C160.842 55.4916 161.017 55.4387 161.157 55.3506ZM162.925 54.2404C162.925 54.0642 162.802 53.9232 162.662 53.9232C162.382 53.9232 162.33 54.2228 162.505 54.7162C162.592 54.9453 162.645 54.9629 162.767 54.7691C162.855 54.6457 162.925 54.399 162.925 54.2404ZM176.575 53.888C176.767 53.5708 176.925 53.2007 176.925 53.0598C176.925 52.9188 177.257 52.5311 177.642 52.1963C178.797 51.2094 179.112 50.0288 178.307 49.8173C178.062 49.7468 177.607 50.0816 176.627 51.0508C175.542 52.1082 175.21 52.3372 174.93 52.2315C174.125 51.9672 173.145 51.9496 172.935 52.1963C172.602 52.6016 173.477 53.747 174.125 53.747C174.405 53.747 174.685 53.8351 174.737 53.9232C174.79 54.029 175.07 54.0995 175.367 54.0995C175.647 54.0995 175.875 54.1876 175.875 54.2757C175.875 54.6457 176.242 54.4343 176.575 53.888ZM168.822 49.9583C168.787 49.8702 168.507 49.7644 168.21 49.7292C167.737 49.6763 167.667 49.7116 167.755 49.9935C167.825 50.1697 168 50.4164 168.157 50.5398C168.385 50.7336 168.472 50.716 168.665 50.4517C168.787 50.2931 168.857 50.064 168.822 49.9583ZM161.175 48.2842C161.175 48.0903 161.052 47.9317 160.912 47.9317C160.597 47.9317 160.58 48.1432 160.86 48.4251C161.14 48.7071 161.175 48.6895 161.175 48.2842ZM180.88 47.1211C180.582 46.6982 180.25 46.5572 180.25 46.8744C180.25 46.9801 180.425 47.3326 180.652 47.6674C180.985 48.1961 181.037 48.2313 181.09 47.9141C181.125 47.7203 181.02 47.3678 180.88 47.1211ZM173.617 47.544C173.705 47.2268 173.67 46.9978 173.495 46.8744C173.232 46.6453 171.115 46.2929 169.837 46.2753C169.085 46.2576 168.962 46.3105 168.962 46.5925C168.962 47.3326 170.94 48.1079 172.707 48.0375C173.407 48.0198 173.495 47.967 173.617 47.544ZM163.24 44.4954C163.362 44.2487 163.45 43.7905 163.45 43.5086C163.45 43.0857 163.38 42.9799 163.152 43.0328C162.907 43.068 162.82 43.2971 162.785 44.0196C162.732 45.0065 162.925 45.2003 163.24 44.4954ZM177.152 44.284C176.837 43.3676 175.35 42.5218 175.35 43.2619C175.35 43.5438 175.56 43.7553 176.312 44.2311C176.995 44.654 177.292 44.6716 177.152 44.284ZM168.77 42.8037C169.627 42.3279 169.75 42.2046 169.47 42.1164C168.787 41.8521 166.285 42.416 166.477 42.7861C166.512 42.8566 166.6 43.0504 166.67 43.2443C166.81 43.6672 167.405 43.5438 168.77 42.8037Z" fill="#FF8757"/>
<path d="M75.6 21.4108C75.6 21.3756 76.02 21.0937 76.5275 20.7941L77.4375 20.2654H76.125C75.4075 20.2654 73.71 20.3888 72.3625 20.5297C69.6325 20.8293 69.2125 20.7236 70.0875 20.0011C70.56 19.5958 72.7475 18.4503 74.4625 17.6926C75.11 17.4106 75.1275 17.3754 74.725 17.3049C74.0425 17.1992 73.955 16.9877 74.4975 16.7762C75.285 16.4943 77.175 15.8951 78.54 15.5251C79.485 15.2607 79.835 15.2255 79.8875 15.3841C79.9225 15.5075 80.045 16.2652 80.15 17.0934C80.255 17.9217 80.5175 19.0495 80.71 19.5958C80.9025 20.1597 81.025 20.7236 80.9725 20.8469C80.92 21.0055 80.3775 21.1818 79.5375 21.3051C78.2075 21.499 75.6 21.5694 75.6 21.4108Z" fill="#FFAA5E"/>
<path d="M13.72 65.6596C12.4075 65.36 10.99 64.7608 10.0275 64.1088C8.43501 63.0339 7.21001 60.9897 7.03501 59.1746L6.94751 58.1349L9.73001 58.1878L12.495 58.2407L12.635 58.9455C12.9325 60.3906 14 61.3245 15.6625 61.5712C16.6075 61.7298 18.1475 61.4126 18.8475 60.9192C19.5125 60.4787 20.125 59.3509 20.125 58.5931C20.125 57.8001 19.4775 56.6547 18.76 56.1436C18.3925 55.8969 16.6775 55.2273 14.945 54.6634C10.01 53.0421 8.71501 52.2315 7.70001 50.1521C6.37001 47.4383 7.01751 43.9844 9.20501 41.9402C12.11 39.2441 18.235 38.8564 21.7875 41.1472C22.82 41.8169 23.8175 42.8742 24.325 43.861C24.7625 44.7421 25.235 46.7334 25.0425 46.9273C24.9725 46.9978 23.7125 47.033 22.2425 47.0154L19.565 46.9625L19.3375 46.2753C18.4975 43.8082 14.4025 43.1033 12.88 45.1827C12.6 45.5351 12.5125 45.9228 12.5125 46.7863C12.5125 47.826 12.5475 47.9494 13.125 48.5485C13.9475 49.4296 14.35 49.6058 17.605 50.6808C19.1625 51.1918 20.93 51.8438 21.56 52.1434C22.89 52.7954 24.185 54.029 24.815 55.2449C25.235 56.0379 25.2875 56.3022 25.2875 58.1526C25.2875 60.091 25.2525 60.232 24.7275 61.3421C23.7825 63.263 22.2075 64.6199 19.985 65.3952C18.6725 65.871 15.2425 66.012 13.72 65.6596Z" fill="#F3F3F3"/>
<path d="M92.8376 65.7481C87.9026 64.9375 84.0701 61.5716 82.5651 56.7432C82.2151 55.5801 82.1626 55.0691 82.1801 52.6901C82.1801 50.223 82.2326 49.8177 82.6526 48.5489C83.2826 46.6105 84.4551 44.7249 85.8726 43.3328C88.5676 40.6719 91.8576 39.4912 95.9001 39.7203C99.2951 39.8965 101.973 41.0067 104.055 43.0861C105.35 44.3725 105.963 45.2888 106.558 46.8396L106.925 47.7559H103.968H101.01L100.485 47.0511C99.2426 45.3417 97.5276 44.5311 95.1126 44.5135C93.3101 44.4959 92.1376 44.8307 90.7026 45.747C86.8176 48.2317 86.1876 55.2629 89.5301 58.8579C91.0351 60.4791 93.0651 61.2368 95.7076 61.1135C97.0726 61.0606 97.5801 60.9549 98.4726 60.5496C100.223 59.739 101.815 57.7653 102.288 55.8269L102.41 55.3334H98.0176H93.6076L93.6601 53.3598L93.7126 51.3685L100.59 51.3156L107.45 51.2804V53.8003C107.45 55.8621 107.38 56.5317 107.1 57.3424C105.753 61.2897 102.708 64.2326 98.7001 65.4133C97.4226 65.7833 94.2201 65.9772 92.8376 65.7481Z" fill="#F3F3F3"/>
<path d="M118.037 65.8007C115.587 65.2192 114.502 64.761 113.312 63.7918C111.842 62.6111 110.95 60.9899 110.67 58.981L110.565 58.1351L113.312 58.188L116.042 58.2408L116.357 59.1748C116.935 60.8665 117.967 61.5538 119.962 61.5714C122.22 61.5714 123.532 60.5846 123.69 58.7695C123.865 56.7253 122.815 55.9147 118.3 54.5578C115.132 53.6062 113.487 52.7604 112.315 51.4916C111.037 50.0994 110.705 49.0597 110.81 46.7336C110.862 45.3062 110.967 44.8481 111.387 43.967C112.787 41.0417 116.007 39.5086 120.312 39.7024C122.64 39.8081 124.145 40.2487 125.632 41.2532C127.365 42.4162 128.397 44.0903 128.712 46.2226L128.835 47.0508H126.035H123.217L123.042 46.4341C122.622 44.8833 121.275 43.9846 119.35 43.9846C118.632 43.9846 118.002 44.1079 117.67 44.2842C115.99 45.1653 115.552 47.2799 116.777 48.6016C117.372 49.2536 118.562 49.7822 121.677 50.8219C124.985 51.9145 125.947 52.3727 127.085 53.3948C129.815 55.809 129.745 60.567 126.962 63.3689C125.3 65.043 123.462 65.7479 120.487 65.8183C119.332 65.8536 118.23 65.8536 118.037 65.8007Z" fill="#F3F3F3"/>
<path d="M29.75 52.8666V40.0024H32.2875H34.825V50.7519V61.5014H39.025H43.225V63.616V65.7307H36.4875H29.75V52.8666Z" fill="#F3F3F3"/>
<path d="M46.4975 65.6073C46.4275 65.5545 46.375 59.7568 46.375 52.7432V40.0024H49H51.625V52.8666V65.7307H49.1225C47.74 65.7307 46.55 65.6778 46.4975 65.6073Z" fill="#F3F3F3"/>
<path d="M56.525 52.8666V40.0024H59.1325H61.7225L63.2975 42.4343C64.1725 43.7559 66.71 47.668 68.9675 51.1044L73.0625 57.3426L73.115 48.6725L73.15 40.0024H75.775H78.4L78.365 52.8313L78.3125 65.6426L75.7575 65.6954L73.2025 65.7483L70.7 61.9067C69.3175 59.792 66.7275 55.8447 64.9425 53.1485L61.6875 48.2143L61.635 56.9725L61.6 65.7307H59.0625H56.525V52.8666Z" fill="#F3F3F3"/>
<path d="M133.472 65.6073C133.402 65.5545 133.35 59.7568 133.35 52.7432V40.0024H135.975H138.6V45.2891V50.5757H144.025H149.45V45.2891V40.0024H151.987H154.525V52.8666V65.7307H151.987H149.45V60.2678V54.805H144.025H138.6V60.2678V65.7307H136.097C134.715 65.7307 133.525 65.6778 133.472 65.6073Z" fill="#F3F3F3"/>
<path d="M190.925 54.9812V44.2317H187.512H184.1V42.1171V40.0024H193.462H202.825V42.1171V44.2317H199.5H196.175L196.14 54.946L196.087 65.6426L193.515 65.6954L190.925 65.7483V54.9812Z" fill="#F3F3F3"/>
<path d="M47.7925 36.6717C47.39 35.9139 47.565 35.5791 49.4025 33.7464C53.025 30.1163 58.7125 26.4685 65.7825 23.2436C68.81 21.8515 71.4175 21.1819 72.7125 21.4638L73.395 21.6048L72.765 21.9925C71.96 22.5035 69.2475 23.8428 67.8475 24.4243C65.975 25.2173 61.4075 27.4906 59.5 28.6008C57.5575 29.7109 54.04 31.8961 53.9 32.0547C53.8475 32.1075 53.4625 32.4071 53.025 32.6891C52.5875 32.971 52.2025 33.253 52.15 33.3058C52.0975 33.3587 51.7475 33.6407 51.3625 33.9226C50.9775 34.2046 50.05 35.0328 49.315 35.7377C48.0725 36.936 47.9675 37.0065 47.7925 36.6717Z" fill="#F3F3F3"/>
<path d="M167.65 35.5791C166.075 34.6804 152.968 28.0545 150.675 26.9971C150.238 26.8033 149.1 26.257 148.138 25.8165C143.973 23.8428 140.998 22.6445 136.815 21.2523C134.785 20.5827 133.875 20.3007 131.338 19.543C128.765 18.8029 123.865 17.6574 121.45 17.2521C117.268 16.5649 110.915 15.86 108.763 15.86C107.783 15.86 105.875 15.2785 105.875 14.9613C105.875 14.6088 107.135 14.4502 110.425 14.415C115.57 14.3445 119.648 14.8555 127.225 16.5472C132.405 17.7103 138.723 19.6664 143.273 21.5167C145.303 22.3449 150.22 24.7239 152.863 26.1689C153.44 26.4861 154.42 27.0148 155.05 27.3496C155.68 27.702 156.608 28.2131 157.115 28.5303C157.623 28.8298 158.078 29.0765 158.113 29.0765C158.27 29.0765 165.498 33.3763 166.95 34.3455C168.455 35.3324 169.715 36.3897 169.575 36.5307C169.523 36.5835 168.665 36.143 167.65 35.5791Z" fill="#F3F3F3"/>
</svg>
